<?xml version="1.0" encoding="utf-8"?>
<!-- Svg Vector Icons : http://www.onlinewebfonts.com/icon -->
<!DOCTYPE svg PUBLIC "-//W3C//DTD SVG 1.1//EN" "http://www.w3.org/Graphics/SVG/1.1/DTD/svg11.dtd">
<svg version="1.1" xmlns="http://www.w3.org/2000/svg" xmlns:xlink="http://www.w3.org/1999/xlink" x="0px" y="0px" viewBox="0 0 1000 1000" enable-background="new 0 0 1000 1000" xml:space="preserve">
<metadata> Svg Vector Icons : http://www.onlinewebfonts.com/icon </metadata>
<g><g transform="translate(0.000000,512.000000) scale(0.100000,-0.100000)"><path d="M7364.2,5006c-34.5-13.4-4366.5-4182.4-4842.1-4659.9c-140-138.1-149.6-153.4-149.6-230.1c0-72.9,11.5-92,120.8-201.4c107.4-109.3,4658-4502.7,4801.8-4636.9c130.4-120.8,331.7-40.3,331.7,134.2c0,90.1,103.6-13.4-2608,2604.2C3831.9-839,2859.6,104.4,2855.8,112.1c-1.9,7.7,1050.9,1031.7,2337.6,2276.3C6482.1,3632.9,7556,4676.2,7580.9,4704.9C7703.7,4850.7,7536.8,5078.9,7364.2,5006z"/></g></g>
</svg>